<svg xmlns="http://www.w3.org/2000/svg" viewBox="0 0 512 512" fill="#555664"><path d="M456.834 132.55H424.7c-25.22 0-46.525 17.017-53.077 40.166H140.377c-6.552-23.149-27.857-40.166-53.076-40.166H55.167C24.748 132.55 0 157.297 0 187.716v80.334c0 8.284 6.716 15 15 15h1.066v49.268c0 25.989 24.748 47.133 55.167 47.133s55.167-21.144 55.167-47.133V283.05h73.366a15 15 0 004.121-.577L256 267.584l52.112 14.889c1.341.383 2.728.577 4.121.577H385.6v49.268c0 25.989 24.747 47.133 55.166 47.133s55.167-21.144 55.167-47.133V283.05H497c8.284 0 15-6.716 15-15v-80.334c0-30.419-24.747-55.166-55.166-55.166zm-32.134 30h32.134c13.877 0 25.166 11.289 25.166 25.166v65.334h-82.466v-65.334c-.001-13.877 11.289-25.166 25.166-25.166zM30 187.716c0-13.877 11.29-25.166 25.167-25.166h32.134c13.877 0 25.166 11.289 25.166 25.166v65.334H30zm66.4 144.601c0 9.127-11.761 17.133-25.167 17.133s-25.167-8.006-25.167-17.133V283.05H96.4zm101.266-79.267h-55.199v-50.334H241v37.953zM271 240.669v-37.953h98.533v50.334h-55.199zm194.934 91.648c0 9.127-11.761 17.133-25.167 17.133s-25.166-8.006-25.166-17.133V283.05h50.333z" data-original="#000000" class="active-path"/></svg>