<svg xmlns="http://www.w3.org/2000/svg" viewBox="-36 0 512 512"><path d="M269.898 220c5.524 0 10-4.48 10-10s-4.476-10-10-10c-5.52 0-10 4.48-10 10s4.48 10 10 10zm-90-10c0-5.52-4.476-10-10-10-5.52 0-10 4.48-10 10s4.48 10 10 10c5.524 0 10-4.48 10-10zm0 0" data-original="#000000" class="active-path" data-old_color="#000000" fill="#ED254E"/><path d="M88.57 342.5l-.93.125c-28.78 3.738-53.976 18.102-69.12 39.41C6.402 399.078 0 419.141 0 440.051V502c0 5.523 4.477 10 10 10h420c5.523 0 10-4.477 10-10v-61.969c0-20.898-6.398-40.945-18.508-57.984-15.144-21.309-40.336-35.676-69.152-39.418l-64.094-8.32-6.59-29.832c32.75-17.637 56.336-48.375 64.856-84.477h4.988c27.57 0 50-22.43 50-50s-22.43-50-50-50H350v-10C350 49.348 300.652 0 240 0h-40C139.984 0 91.047 48.316 90.023 108.09c-.199 1.336-.12 3.226-.023 4.539v7.394c-26.879.793-48.5 22.907-48.5 49.977 0 27.57 22.43 50 50 50h1.996c8.621 36.621 32.621 67.063 64.856 84.441l-6.598 29.864zM220 320c14.836 0 29.246-2.453 42.992-7.285l6.578 29.765C266.371 367.383 245.31 386 220 386s-46.375-18.621-49.57-43.527l6.574-29.758C190.754 317.547 205.164 320 220 320zm0 86c32.184 0 59.469-21.523 67.555-51.613L340 361.184V492H99.898V361.2l52.547-6.817C160.531 384.477 187.813 406 220 406zM20 440.05c0-16.734 5.125-32.788 14.82-46.425 10.121-14.242 26.301-24.555 45.18-29.21V492H20zm385.188-46.417C414.877 407.266 420 423.309 420 440.03V492h-60.102V364.367c18.957 4.625 35.125 14.965 45.29 29.266zM170 85c0-31.328 17.266-57.578 40-63.668V100h-38.645A83.3 83.3 0 01170 85zm98.645 15h-38.747V21.285C252.742 27.273 270 53.563 270 85a83.3 83.3 0 01-1.355 15zm58.48 20c-13.14 24.059-63.809 40-107.227 40-48.128 0-95.472-18.441-107.226-40zm24.375 20c16.543 0 30 13.457 30 30s-13.457 30-30 30h-1.898c.253-3.328.398-6.664.398-10v-50zm-22.059-40h-40.535A103.877 103.877 0 00290 85c0-23.406-7.836-44.637-20.484-60.023C301.66 36.168 325.566 65.105 329.44 100zM170.504 24.969C157.844 40.363 150 61.598 150 85c0 5.063.371 10.074 1.094 15h-40.535c3.875-34.902 27.789-63.844 59.945-75.031zM61.5 170c0-16.04 12.652-29.18 28.5-29.96V190c0 3.324.145 6.652.395 9.973C74.363 199.387 61.5 186.172 61.5 170zm48.5 20v-42.96C137.254 169.897 183.426 180 219.898 180c41.778 0 85.508-12.457 110.102-33.129V190c0 60.82-49.215 110-110 110-16.078 0-31.563-3.383-46.02-10.059C135.36 272.121 110 233.52 110 190zm0 0" data-original="#000000" class="active-path" data-old_color="#000000" fill="#ED254E"/><path d="M193.172 272.738c8.406 3.957 17.398 5.961 26.726 5.961 9.137 0 17.957-1.926 26.22-5.722 5.019-2.309 7.214-8.247 4.91-13.262-2.31-5.02-8.247-7.219-13.266-4.91-5.621 2.586-11.633 3.894-17.864 3.894-6.363 0-12.488-1.363-18.21-4.058-4.997-2.352-10.954-.207-13.305 4.789-2.352 5-.207 10.957 4.789 13.308zM269.898 466h40c5.524 0 10-4.477 10-10s-4.476-10-10-10h-40c-5.52 0-10 4.477-10 10s4.48 10 10 10zm-42.593-19.86a10.014 10.014 0 0111.554 11.555c-.68 4.145-4.023 7.485-8.164 8.164a10.011 10.011 0 01-11.554-11.554c.68-4.145 4.02-7.485 8.164-8.164zm0 0" data-original="#000000" class="active-path" data-old_color="#000000" fill="#ED254E"/></svg>