<svg xmlns="http://www.w3.org/2000/svg" viewBox="0 0 511.999 511"><path d="M241.219 257.14c-3.91 3.9-3.91 10.231 0 14.141s10.238 3.91 14.14 0c3.91-3.91 3.91-10.242 0-14.14-3.902-3.91-10.23-3.91-14.14 0zm0 0" data-original="#000000" class="active-path" data-old_color="#000000" fill="#ED254E"/><path d="M400.227 29.754c-17.16 13.285-21.836 20.133-82.696 80.363l-36.484-5.941 16.742-16.742c11.727-11.727 11.73-30.7 0-42.426-11.723-11.723-30.707-11.727-42.43 0L208.07 92.297 42.688 65.37a33.821 33.821 0 00-29.27 9.45C-1.289 89.526.707 113.858 17.484 126l164.809 119.352-30.856 30.859c-10.574 10.574-21.703 25.117-33.14 43.277l-76.86-22.601a32.34 32.34 0 00-31.972 8.152c-14.266 14.266-12.11 37.957 4.46 49.434l63.009 43.617c-10.97 24.207-17.637 41.71-17.946 42.52a10.002 10.002 0 0012.899 12.898c.808-.305 18.312-6.977 42.52-17.946l43.62 63.012c11.496 16.598 35.188 18.7 49.438 4.45a32.319 32.319 0 008.144-31.965l-22.597-76.856c18.172-11.445 32.707-22.574 43.277-33.14l30.86-30.86 119.347 164.809c12.16 16.804 36.492 18.758 51.184 4.066 7.644-7.644 11.18-18.586 9.449-29.277L420.203 304.43l47.285-47.285c11.727-11.727 11.727-30.711 0-42.434-11.722-11.727-30.695-11.727-42.422 0l-16.746 16.742-5.937-36.484c60.293-60.922 67.031-65.489 80.324-82.649.016-.02.035-.043.05-.066 30.845-39.973 38.063-80.344 17.95-100.465-20.117-20.105-60.492-12.894-100.48 17.965zM269.5 59.152c3.906-3.91 10.238-3.91 14.148 0a9.988 9.988 0 010 14.137l-26.93 26.926-24.323-3.961zM29.21 109.797c-6.843-4.95-7.628-14.86-1.648-20.836a13.77 13.77 0 0111.918-3.852l260.625 42.434-103.488 103.484zm-5.605 209.39a12.323 12.323 0 0112.192-3.113l71.887 21.14c-7.352 12.876-14.77 27.099-22.168 42.493l-60.204-41.676c-6.316-4.375-7.144-13.41-1.707-18.844zm169.711 169.704c-5.39 5.39-14.437 4.664-18.847-1.704l-41.676-60.207c15.406-7.406 29.633-14.828 42.492-22.164l21.137 71.883c1.273 4.328.082 9-3.106 12.192zm245.895-260.04a9.988 9.988 0 0114.137 0c3.91 3.91 3.906 10.239 0 14.149l-37.106 37.102-3.957-24.325zm-11.824 244.157a13.79 13.79 0 01-3.848 11.93c-5.95 5.949-15.867 5.222-20.84-1.653L281.47 315.883l103.488-103.488zm-205.239-126.09c-11.003 11.008-27.109 22.89-47.867 35.324-26.984 16.16-58.918 31.465-87.722 43.7 12.566-29.587 28.16-62.036 44.668-89.329 12.074-19.976 23.632-35.543 34.355-46.261C409.855 46.664 395.382 59.234 410.207 47.379c16.445-1.05 30.922 3.832 41 13.91s14.965 24.559 13.914 41c-11.883 14.86.54.527-242.973 244.629zM482.234 76.012c-3.195-11.024-8.87-20.852-16.882-28.864-8.012-8.007-17.84-13.687-28.86-16.882 14.473-7.34 38.844-15.559 50.074-4.336 8.868 8.87 6.664 28.398-4.332 50.082zm0 0" data-original="#000000" class="active-path" data-old_color="#000000" fill="#ED254E"/><path d="M297.79 200.57l-28.282 28.278c-3.906 3.906-3.906 10.238 0 14.144s10.234 3.903 14.144 0l28.278-28.281c3.906-3.902 3.906-10.234 0-14.14s-10.235-3.907-14.14 0zM354.36 144l-28.294 28.29c-3.902 3.905-3.902 10.237 0 14.144 3.91 3.902 10.239 3.902 14.145 0l28.289-28.29c3.906-3.906 3.906-10.238 0-14.144s-10.234-3.906-14.14 0zm0 0" data-original="#000000" class="active-path" data-old_color="#000000" fill="#ED254E"/></svg>