<svg viewBox="0 0 512.061 512.061" xmlns="http://www.w3.org/2000/svg" fill="#555664"><path d="M509.838 427.075c-.255-.66 3.642 7.792-54.789-118.349V71.031c0-16.542-13.458-30-30-30h-338c-16.542 0-30 13.458-30 30v237.692L2.586 426.203c-4.032 8.708-3.597 21.035 3.069 30.781a32.247 32.247 0 0026.628 14.047H479.77c22.639 0 38.302-22.788 30.068-43.956zM87.049 71.031h338v226h-338zm117.402 370l10.625-34h81.944l10.625 34zm275.319 0H339.077l-16.711-53.474a15 15 0 00-14.317-10.526h-104a15 15 0 00-14.317 10.526l-16.711 53.474H32.283c-1.587 0-2.559-1.505-2.193-2.828l51.538-111.172h348.837l51.497 111.171c.368 1.321-.604 2.829-2.192 2.829z"/></svg>