<svg xmlns="http://www.w3.org/2000/svg" height="512" viewBox="0 0 512.004 512.004" width="512"><path d="M499.65 130.242l-62.367-11.176c.779-4.768 1.22-9.482 1.22-14.064 0-57.897-47.103-105-105-105-34.04 0-64.344 16.287-83.542 41.472l-27.473-18.841a15.003 15.003 0 00-8.485-2.63L141 20.006c-8.284 0-15 6.717-14.999 15.001l.002 30.999h-69a14.998 14.998 0 00-15 15v47.343L4.939 161.884a15 15 0 00-4.937 11.123l-.003 76a15.001 15.001 0 0015 15.001h95.79l70.38 70.38 26.395 67.745-25.881 49.977a14.997 14.997 0 007.485 20.717l90 37.996a14.998 14.998 0 0016.407-3.178l80-79.496a15 15 0 004.427-10.64V391.01l54.001-.001a15 15 0 0014.879-13.106l6.526-51.279 53.831-75.94a15 15 0 002.763-8.674l.001-97a15 15 0 00-12.353-14.768zM333.502 30.002c41.355 0 75 33.645 75 75 0 18.632-12.012 48.502-31.348 77.953-20.067 30.565-37.939 45.376-43.652 46.976-5.713-1.6-23.585-16.411-43.652-46.976-19.336-29.451-31.348-59.32-31.348-77.953 0-41.355 33.645-75 75-75zm148.501 207.227l-53.237 75.104a15.003 15.003 0 00-2.643 6.781l-5.332 41.894-55.789.001c-8.284 0-15 6.716-15 15v35.257l-68.436 68.004-65.784-27.772 21.54-41.593a15 15 0 00.657-12.343l-30-77a14.99 14.99 0 00-3.37-5.161l-77-77a15 15 0 00-10.606-4.394H30l.002-54.343 37.065-33.535a15.002 15.002 0 004.937-11.123v-39h69a15 15 0 0015-15.001l-.001-31 53.353-.003 25.96 17.804a104.47 104.47 0 00-6.812 37.196c0 37.471 29.071 83.715 37.981 96.997 11.7 17.44 41.652 58.004 67.019 58.004s55.319-40.564 67.019-58.004c5.614-8.369 19.228-29.827 28.535-53.929l52.948 9.488z" data-original="#000000" class="active-path" data-old_color="#000000" fill="#ED254E"/><path d="M333.502 150.002c24.813 0 45-20.187 45-45s-20.187-45-45-45-45 20.187-45 45 20.187 45 45 45zm0-60.001c8.271 0 15 6.729 15 15s-6.729 15-15 15-15-6.729-15-15 6.729-15 15-15z" data-original="#000000" class="active-path" data-old_color="#000000" fill="#ED254E"/></svg>