<svg xmlns="http://www.w3.org/2000/svg" width="512" height="512"><path d="M116 412c-16.543 0-30 13.457-30 30s13.457 30 30 30 30-13.457 30-30-13.457-30-30-30zm0 40c-5.516 0-10-4.484-10-10s4.484-10 10-10 10 4.484 10 10-4.484 10-10 10zm0 0" data-original="#000000" class="active-path" data-old_color="#000000" fill="#ED254E"/><path d="M482 412h-16V196c0-5.523-4.477-10-10-10h-50V50c0-5.523-4.477-10-10-10H196c-5.523 0-10 4.477-10 10v362h-6.746A69.582 69.582 0 00146 378.746V30c0-16.543-13.457-30-30-30H30C13.457 0 0 13.457 0 30s13.457 30 30 30h56v318.746C61.812 390.23 46 414.81 46 442c0 38.598 31.402 70 70 70 27.191 0 51.77-15.813 63.254-40H482c16.543 0 30-13.457 30-30s-13.457-30-30-30zm-36 0H206V206h70v106a9.997 9.997 0 0016 8l34-25.5 34 25.5a9.998 9.998 0 0016-8V206h70zM296 206h60v86l-24-18a9.997 9.997 0 00-12 0l-24 18zM276 60h40v57.313l-14.453-9.633c-1.68-1.121-3.613-1.68-5.547-1.68s-3.867.559-5.547 1.68L276 117.312zm-20 0v76a10.001 10.001 0 0015.547 8.32L296 128.02l24.453 16.3A10 10 0 00336 136V60h50v126H206V60zM30 40c-5.516 0-10-4.484-10-10s4.484-10 10-10h86c5.516 0 10 4.484 10 10v342.723c-3.297-.473-6.633-.723-10-.723s-6.703.25-10 .723V50c0-5.523-4.477-10-10-10zm86 452c-27.57 0-50-22.43-50-50 0-27.273 22.063-50 50-50 27.93 0 50 22.75 50 50 0 27.938-22.727 50-50 50zm366-40H185.277c.473-3.297.723-6.633.723-10s-.254-6.703-.723-10H482c5.516 0 10 4.484 10 10s-4.484 10-10 10zm0 0" data-original="#000000" class="active-path" data-old_color="#000000" fill="#ED254E"/><path d="M416 392c5.523 0 10-4.477 10-10v-20c0-5.523-4.477-10-10-10s-10 4.477-10 10v20c0 5.523 4.477 10 10 10zm0-80c5.52 0 10 4.48 10 10s-4.48 10-10 10-10-4.48-10-10 4.48-10 10-10zm-40 40c-5.523 0-10 4.477-10 10v20c0 5.523 4.477 10 10 10s10-4.477 10-10v-20c0-5.523-4.477-10-10-10zm0 0" data-original="#000000" class="active-path" data-old_color="#000000" fill="#ED254E"/></svg>