<svg xmlns="http://www.w3.org/2000/svg" viewBox="0 -26 512 511" width="512" height="512"><path d="M176 80.5c5.52 0 10-4.48 10-10s-4.48-10-10-10-10 4.48-10 10 4.48 10 10 10zm-80 40c-5.516 0-10-4.484-10-10s4.484-10 10-10c3.543 0 7.281 1.809 10.816 5.227 3.97 3.84 10.301 3.734 14.141-.23 3.84-3.974 3.734-10.302-.234-14.142-5.075-4.914-10.153-7.69-14.723-9.207V70.5c0-5.523-4.477-10-10-10s-10 4.477-10 10v11.719C74.36 86.348 66 97.465 66 110.5c0 16.543 13.457 30 30 30 5.512 0 10 4.484 10 10s-4.488 10-10 10c-4.273 0-8.887-2.688-12.988-7.563-3.551-4.23-9.86-4.777-14.086-1.222-4.23 3.555-4.774 9.863-1.223 14.09 5.348 6.36 11.633 10.793 18.297 13.023V190.5c0 5.523 4.477 10 10 10s10-4.477 10-10v-11.719c11.637-4.129 20-15.246 20-28.281 0-16.543-13.457-30-30-30zm136 220c-22.055 0-40 17.945-40 40s17.945 40 40 40 40-17.945 40-40-17.945-40-40-40zm0 60c-11.027 0-20-8.973-20-20s8.973-20 20-20 20 8.973 20 20-8.973 20-20 20zm200 20c22.055 0 40-17.945 40-40s-17.945-40-40-40-40 17.945-40 40 17.945 40 40 40zm0-60c11.027 0 20 8.973 20 20s-8.973 20-20 20-20-8.973-20-20 8.973-20 20-20zm0 0" data-original="#000000" class="active-path" data-old_color="#000000" fill="#ED254E"/><path d="M482 .5H30C13.457.5 0 13.957 0 30.5v200c0 16.543 13.457 30 30 30h246.168l-19.121 27.309c-5.688 8.125-14.512 12.918-23.567 12.703-40.796-.653-73.015 28.222-79.949 64.144-5.12 26.512 3.067 53.582 21.899 72.414 18.886 18.883 45.984 27.004 72.425 21.899 31.012-5.989 56.094-30.77 62.422-61.664 2.035-9.942 2.27-19.918.696-29.649-1.043-6.441-1.11-15.804 4.476-23.789L332 320.234l16.547 23.63c5.59 7.988 5.52 17.35 4.48 23.788-1.574 9.735-1.34 19.711.696 29.653 6.324 30.894 31.41 55.675 62.422 61.664a82.347 82.347 0 0015.605 1.496c21.215 0 41.676-8.258 56.809-23.39 18.836-18.829 27.023-45.903 21.91-72.423-6.942-35.949-39.266-64.875-79.969-64.14-9.016.164-17.86-4.578-23.55-12.707L387.827 260.5H482c16.543 0 30-13.46 30-30v-200c0-16.543-13.457-30-30-30zM299.066 332.398c-7.359 10.52-10.144 24.176-7.84 38.45 1.188 7.332 1.004 14.886-.542 22.445-4.649 22.703-23.82 41.637-46.621 46.039-20.29 3.914-40.149-2.062-54.493-16.406-14.34-14.34-20.316-34.196-16.402-54.48 5.059-26.204 29.145-48.446 59.953-47.938 15.742.297 30.8-7.645 40.309-21.23 13.43-19.18 104.433-149.141 116.175-165.915 16.141 17.035 18.43 43.461 4.665 63.082l-95.204 135.953zm130.95-11.882c33.804 0 56.011 23.039 60.816 47.93 3.91 20.284-2.07 40.148-16.414 54.488-14.34 14.336-34.195 20.312-54.48 16.398-22.801-4.402-41.973-23.336-46.622-46.035-1.546-7.563-1.73-15.117-.543-22.453 2.305-14.27-.48-27.926-7.84-38.45l-20.726-29.593 24.414-34.863 21.945 31.335c9.34 13.348 24.04 21.243 39.45 21.243zM492 230.5c0 5.516-4.484 10-10 10h-94.164l22.809-32.574a69.958 69.958 0 004.53-7.426H442c5.523 0 10-4.477 10-10s-4.477-10-10-10h-19.844c3.188-17.328-.355-35.23-9.613-50H442c5.523 0 10-4.477 10-10s-4.477-10-10-10h-48.422a1.83 1.83 0 00-.105-.078 9.999 9.999 0 00-13.934 2.453L290.172 240.5H30c-5.516 0-10-4.484-10-10v-200c0-5.516 4.484-10 10-10h282v10c0 5.523 4.477 10 10 10s10-4.477 10-10v-10h150c5.516 0 10 4.484 10 10zm0 0" data-original="#000000" class="active-path" data-old_color="#000000" fill="#ED254E"/><path d="M322 60.5c-5.523 0-10 4.477-10 10v20c0 5.523 4.477 10 10 10s10-4.477 10-10v-20c0-5.523-4.477-10-10-10zm0 60c-5.523 0-10 4.477-10 10v20c0 5.523 4.477 10 10 10s10-4.477 10-10v-20c0-5.523-4.477-10-10-10zm-60 60h-86c-5.523 0-10 4.477-10 10s4.477 10 10 10h86c5.523 0 10-4.477 10-10s-4.477-10-10-10zm0-60h-86c-5.523 0-10 4.477-10 10s4.477 10 10 10h86c5.523 0 10-4.477 10-10s-4.477-10-10-10zm180-60h-60c-5.523 0-10 4.477-10 10s4.477 10 10 10h60c5.523 0 10-4.477 10-10s-4.477-10-10-10zm-180 0h-46c-5.523 0-10 4.477-10 10s4.477 10 10 10h46c5.523 0 10-4.477 10-10s-4.477-10-10-10zm0 0" data-original="#000000" class="active-path" data-old_color="#000000" fill="#ED254E"/></svg>