<svg xmlns="http://www.w3.org/2000/svg" width="512" height="512"><path d="M370 246c-5.52 0-10 4.48-10 10s4.48 10 10 10 10-4.48 10-10-4.48-10-10-10zM270 66H70c-5.523 0-10 4.477-10 10v100c0 5.523 4.477 10 10 10h200c5.523 0 10-4.477 10-10V76c0-5.523-4.477-10-10-10zm-10 100H80V86h180zm0 0" data-original="#000000" class="active-path" data-old_color="#000000" fill="#ED254E"/><path d="M230 146c5.523 0 10-4.477 10-10v-20c0-5.523-4.477-10-10-10s-10 4.477-10 10v20c0 5.523 4.477 10 10 10zm-40 0c5.523 0 10-4.477 10-10v-20c0-5.523-4.477-10-10-10s-10 4.477-10 10v20c0 5.523 4.477 10 10 10zm0 0" data-original="#000000" class="active-path" data-old_color="#000000" fill="#ED254E"/><path d="M482 66H340V50c0-27.57-22.43-50-50-50H50C22.43 0 0 22.43 0 50v412c0 27.57 22.43 50 50 50h240c27.57 0 50-22.43 50-50V326h142c16.543 0 30-13.457 30-30V96c0-16.543-13.457-30-30-30zm-142 80h152v40H340zm152-50v30H340V86h142c5.516 0 10 4.484 10 10zM320 462c0 16.543-13.457 30-30 30H50c-16.543 0-30-13.457-30-30V50c0-16.543 13.457-30 30-30h240c16.543 0 30 13.457 30 30zm162-156H340V206h152v90c0 5.516-4.484 10-10 10zm0 0" data-original="#000000" class="active-path" data-old_color="#000000" fill="#ED254E"/><path d="M462 246h-52c-5.523 0-10 4.477-10 10s4.477 10 10 10h52c5.523 0 10-4.477 10-10s-4.477-10-10-10zm-352-20H70c-5.523 0-10 4.477-10 10v40c0 5.523 4.477 10 10 10h40c5.523 0 10-4.477 10-10v-40c0-5.523-4.477-10-10-10zm-10 40H80v-20h20zm10 40H70c-5.523 0-10 4.477-10 10v40c0 5.523 4.477 10 10 10h40c5.523 0 10-4.477 10-10v-40c0-5.523-4.477-10-10-10zm-10 40H80v-20h20zm10 40H70c-5.523 0-10 4.477-10 10v40c0 5.523 4.477 10 10 10h40c5.523 0 10-4.477 10-10v-40c0-5.523-4.477-10-10-10zm-10 40H80v-20h20zm90-200h-40c-5.523 0-10 4.477-10 10v40c0 5.523 4.477 10 10 10h40c5.523 0 10-4.477 10-10v-40c0-5.523-4.477-10-10-10zm-10 40h-20v-20h20zm10 40h-40c-5.523 0-10 4.477-10 10v40c0 5.523 4.477 10 10 10h40c5.523 0 10-4.477 10-10v-40c0-5.523-4.477-10-10-10zm-10 40h-20v-20h20zm10 40h-40c-5.523 0-10 4.477-10 10v40c0 5.523 4.477 10 10 10h40c5.523 0 10-4.477 10-10v-40c0-5.523-4.477-10-10-10zm-10 40h-20v-20h20zm90-200h-40c-5.523 0-10 4.477-10 10v40c0 5.523 4.477 10 10 10h40c5.523 0 10-4.477 10-10v-40c0-5.523-4.477-10-10-10zm-10 40h-20v-20h20zm10 40h-40c-5.523 0-10 4.477-10 10v40c0 5.523 4.477 10 10 10h40c5.523 0 10-4.477 10-10v-40c0-5.523-4.477-10-10-10zm-10 40h-20v-20h20zm10 40h-40c-5.523 0-10 4.477-10 10v40c0 5.523 4.477 10 10 10h40c5.523 0 10-4.477 10-10v-40c0-5.523-4.477-10-10-10zm-10 40h-20v-20h20zm0 0" data-original="#000000" class="active-path" data-old_color="#000000" fill="#ED254E"/></svg>