<svg xmlns="http://www.w3.org/2000/svg" viewBox="0 -26 512 512" width="512" height="512"><path d="M90 320c-5.52 0-10 4.48-10 10s4.48 10 10 10 10-4.48 10-10-4.48-10-10-10zm0 60c-5.52 0-10 4.48-10 10s4.48 10 10 10 10-4.48 10-10-4.48-10-10-10zm0 0" data-original="#000000" class="active-path" data-old_color="#000000" fill="#ED254E"/><path d="M462 0H50C22.43 0 0 22.43 0 50v60c0 5.523 4.477 10 10 10h10v310c0 16.543 13.457 30 30 30h412c16.543 0 30-13.457 30-30V120h10c5.523 0 10-4.477 10-10V50c0-27.57-22.43-50-50-50zM296 249.195l-33.754-27.004a9.997 9.997 0 00-12.492 0L216 249.195V20h80zM20 50c0-16.543 13.457-30 30-30h146v80H20zm452 380c0 5.516-4.484 10-10 10H50c-5.516 0-10-4.484-10-10V120h156v150a9.997 9.997 0 005.668 9.012 9.99 9.99 0 0010.578-1.203L256 242.805l43.754 35.004a9.993 9.993 0 0010.578 1.203A9.997 9.997 0 00316 270V120h156zm20-330H316V20h146c16.543 0 30 13.457 30 30zm0 0" data-original="#000000" class="active-path" data-old_color="#000000" fill="#ED254E"/><path d="M316 320c-5.523 0-10 4.477-10 10v60c0 5.523 4.477 10 10 10h106c5.523 0 10-4.477 10-10v-60c0-5.523-4.477-10-10-10zm96 60h-86v-40h86zm-216-60h-66c-5.523 0-10 4.477-10 10s4.477 10 10 10h66c5.523 0 10-4.477 10-10s-4.477-10-10-10zm0 60h-66c-5.523 0-10 4.477-10 10s4.477 10 10 10h66c5.523 0 10-4.477 10-10s-4.477-10-10-10zm0 0" data-original="#000000" class="active-path" data-old_color="#000000" fill="#ED254E"/></svg>