<svg xmlns="http://www.w3.org/2000/svg" viewBox="-35 1 511 511.999" width="512" height="512"><path d="M271.05 180c5.52 0 10-4.48 10-10s-4.48-10-10-10c-5.53 0-10 4.48-10 10s4.47 10 10 10zm-100 0c5.52 0 10-4.48 10-10s-4.48-10-10-10c-5.53 0-10 4.48-10 10s4.47 10 10 10zm23.266 68.734c8.395 3.957 17.391 5.965 26.73 5.965 9.138 0 17.958-1.926 26.22-5.722 5.02-2.309 7.214-8.247 4.91-13.266-2.309-5.016-8.246-7.215-13.266-4.906a42.502 42.502 0 01-17.863 3.894c-6.371 0-12.496-1.363-18.203-4.054-4.996-2.356-10.957-.215-13.309 4.78a10 10 0 004.781 13.31zm0 0" data-original="#000000" class="active-path" data-old_color="#000000" fill="#ED254E"/><path d="M441.59 405.77c0-54.989-62.625-98.114-116.305-100.157l-27.387-24.605C331.254 256.672 351.5 217.562 351.5 176v-66c0-60.652-49.504-110-110.352-110h-40C140.383 0 91.5 49.172 91.5 110v66c0 41.492 19.977 80.527 52.898 104.82l-27.593 24.793C63.242 307.653.5 350.668.5 405.77V502c0 5.523 4.477 10 10 10h421.09c5.523 0 10-4.477 10-10zM198.895 446h44.246l10.484 46h-65.52zM244 426h-45.738l-7.672-23.902 30.46-15.23 31.114 15.562zm-22.953-69.18l-34.75-55.59a130.176 130.176 0 0034.851 4.766c11.727 0 23.368-1.598 34.594-4.684zm14.312 14.844l48.012-76.824 25.895 23.265-32.95 74.043zM201.15 20h40c49.82 0 90.351 40.371 90.351 90v8.266l-18.777-27.04a10 10 0 00-15.364-1.288C277.031 110.727 253.496 120 221.051 120c-32.442 0-55.98-9.273-76.324-30.063a9.994 9.994 0 00-8.024-2.968 9.989 9.989 0 00-7.383 4.324l-17.82 26.113V110c0-49.629 40.215-90 89.648-90zM111.5 176v-23.113l27.773-40.7C161.523 131.113 187.816 140 221.051 140c33.27 0 59.582-8.906 81.836-27.871l28.613 41.203V176c0 59.887-48.95 110-110.352 110-61.203 0-109.648-49.957-109.648-110zm47.219 118.844l48.02 76.82-40.966 20.484-32.949-74.043zM20.5 405.77c0-41.196 50.078-76.766 93.84-80l37.414 84.066a10.002 10.002 0 0013.609 4.878l7.125-3.566 8.114 25.266L167.562 492H20.5zM421.59 492H274.137l-12.633-55.434 8.7-25.117 6.523 3.266a10.003 10.003 0 0013.609-4.88l37.414-84.065c43.762 3.238 93.84 38.804 93.84 80zm0 0" data-original="#000000" class="active-path" data-old_color="#000000" fill="#ED254E"/><path d="M351.05 446h-40c-5.523 0-10 4.477-10 10s4.477 10 10 10h40c5.524 0 10-4.477 10-10s-4.476-10-10-10zm39.45 0c5.52 0 10 4.48 10 10s-4.48 10-10 10-10-4.48-10-10 4.48-10 10-10zm0 0" data-original="#000000" class="active-path" data-old_color="#000000" fill="#ED254E"/></svg>