<svg height="512" viewBox="0 0 528 528" width="512" xmlns="http://www.w3.org/2000/svg"><path d="M412.5 0h-297C88.204 0 66 22.204 66 49.5v429c0 27.296 22.204 49.5 49.5 49.5h297c27.296 0 49.5-22.204 49.5-49.5v-429C462 22.204 439.796 0 412.5 0zm-297 33h297c9.104 0 16.5 7.396 16.5 16.5V396H99V49.5c0-9.104 7.396-16.5 16.5-16.5zm297 462h-297c-9.104 0-16.5-7.396-16.5-16.5V429h330v49.5c0 9.104-7.396 16.5-16.5 16.5z"/><path d="M275.667 450.333c6.444 6.444 6.444 16.891 0 23.335s-16.891 6.444-23.335 0-6.444-16.891 0-23.335 16.891-6.444 23.335 0"/></svg>