<svg xmlns="http://www.w3.org/2000/svg" viewBox="0 0 512 512"><path d="M20 106h233c11.046 0 20-8.954 20-20s-8.954-20-20-20H20C8.954 66 0 74.954 0 86s8.954 20 20 20zm353 65c33.084 0 60-26.916 60-60v-5h59c11.046 0 20-8.954 20-20s-8.954-20-20-20h-59v-6c0-33.084-26.916-60-60-60s-60 26.916-60 60v51c0 33.084 26.916 60 60 60zM353 60c0-11.028 8.972-20 20-20s20 8.972 20 20v51c0 11.028-8.972 20-20 20s-20-8.972-20-20V60zM252.954 407H20c-11.046 0-20 8.954-20 20s8.954 20 20 20h232.954c11.046 0 20-8.954 20-20s-8.954-20-20-20zM20 275.878h57c11.046 0 20-8.954 20-20s-8.954-20-20-20H20c-11.046 0-20 8.954-20 20s8.954 20 20 20zm472-40H257V229c0-33.084-26.916-60-60-60s-60 26.916-60 60v52c0 33.084 26.916 60 60 60s60-26.916 60-60v-5.122h235c11.046 0 20-8.954 20-20 0-11.045-8.954-20-20-20zM217 281c0 11.028-8.972 20-20 20s-20-8.972-20-20v-52c0-11.028 8.972-20 20-20s20 8.972 20 20v52zm275 126h-59.046v-6c0-33.084-26.916-60-60-60s-60 26.916-60 60v51c0 33.084 26.916 60 60 60s60-26.916 60-60v-5H492c11.046 0 20-8.954 20-20s-8.954-20-20-20zm-99.046 45c0 11.028-8.972 20-20 20s-20-8.972-20-20v-51c0-11.028 8.972-20 20-20s20 8.972 20 20v51z" data-original="#000000" class="active-path" data-old_color="#000000" fill="#ED254E"/></svg>