<svg height="512" viewBox="0 0 527.999 527.999" width="512" xmlns="http://www.w3.org/2000/svg"><path d="M407.994 128.511L379 12.504A16.493 16.493 0 00363 0H165a16.492 16.492 0 00-16 12.504l-28.994 116.007C86.623 163.969 66 211.569 66 264s20.623 100.031 54.006 135.488L149 515.495a16.493 16.493 0 0016 12.504h198a16.492 16.492 0 0016-12.504l28.994-116.007C441.377 364.031 462 316.43 462 264c0-52.431-20.623-100.031-54.006-135.489zM177.89 33h172.219l15.322 61.267C335.72 76.443 301.099 66 264 66s-71.72 10.443-101.431 28.267L177.89 33zm172.219 462H177.89l-15.322-61.267C192.279 451.556 226.9 462 263.999 462s71.72-10.443 101.431-28.267L350.109 495zM264 429c-90.976 0-165-74.024-165-165S173.024 99 264 99s165 74.024 165 165-74.025 165-165 165z"/></svg>