<?xml version="1.0"?>
<svg xmlns="http://www.w3.org/2000/svg" id="Capa_1" enable-background="new 0 0 512 512" viewBox="0 0 512 512" fill="#555664"><g><path d="m456.834 132.55h-32.134c-25.22 0-46.525 17.017-53.077 40.166h-231.246c-6.552-23.149-27.857-40.166-53.076-40.166h-32.134c-30.419 0-55.167 24.747-55.167 55.166v80.334c0 8.284 6.716 15 15 15h1.066v49.268c0 25.989 24.748 47.133 55.167 47.133s55.167-21.144 55.167-47.133v-49.268h1.066 72.3c1.394 0 2.78-.194 4.121-.577l52.113-14.889 52.112 14.889c1.341.383 2.728.577 4.121.577h72.3 1.067v49.268c0 25.989 24.747 47.133 55.166 47.133s55.167-21.144 55.167-47.133v-49.268h1.067c8.284 0 15-6.716 15-15v-80.334c0-30.419-24.747-55.166-55.166-55.166zm-32.134 30h32.134c13.877 0 25.166 11.289 25.166 25.166v65.334h-1.066-80.333-1.067v-65.334c-.001-13.877 11.289-25.166 25.166-25.166zm-394.7 25.166c0-13.877 11.29-25.166 25.167-25.166h32.134c13.877 0 25.166 11.289 25.166 25.166v65.334h-1.067-80.334-1.066zm66.4 144.601c0 9.127-11.761 17.133-25.167 17.133s-25.167-8.006-25.167-17.133v-49.267h50.334zm101.266-79.267h-55.199v-50.334h98.533v37.953zm73.334-12.381v-37.953h98.533v50.334h-55.199zm194.934 91.648c0 9.127-11.761 17.133-25.167 17.133s-25.166-8.006-25.166-17.133v-49.267h50.333z" data-original="#000000" class="active-path"/></g> </svg>
