<svg id="Capa_1" enable-background="new 0 0 512.061 512.061" height="512" viewBox="0 0 512.061 512.061" width="512" xmlns="http://www.w3.org/2000/svg"><g><path d="m509.838 427.075c-.255-.66 3.642 7.792-54.789-118.349v-237.695c0-16.542-13.458-30-30-30h-338c-16.542 0-30 13.458-30 30v237.692l-54.463 117.48c-4.032 8.708-3.597 21.035 3.069 30.781 6.017 8.795 15.971 14.047 26.628 14.047h447.487c22.639 0 38.302-22.788 30.068-43.956zm-422.789-356.044h338v226h-338zm117.402 370 10.625-34h81.944l10.625 34zm275.319 0h-140.693l-16.711-53.474c-1.957-6.262-7.757-10.526-14.317-10.526h-104c-6.561 0-12.36 4.264-14.317 10.526l-16.711 53.474h-140.738c-1.587 0-2.559-1.505-2.193-2.828l51.538-111.172h348.837l51.497 111.171c.368 1.321-.604 2.829-2.192 2.829z"/></g></svg>