<?xml version="1.0"?>
<svg xmlns="http://www.w3.org/2000/svg" id="Layer_1" enable-background="new 0 0 512.004 512.004"  viewBox="0 0 512.004 512.004" ><g><g><path d="m499.65 130.242-62.367-11.176c.779-4.768 1.22-9.482 1.22-14.064 0-57.897-47.103-105-105-105-34.04 0-64.344 16.287-83.542 41.472l-27.473-18.841c-2.498-1.713-5.456-2.63-8.485-2.63l-73.003.003c-8.284 0-15 6.717-14.999 15.001l.002 30.999h-69c-3.979 0-7.793 1.581-10.606 4.394s-4.394 6.628-4.394 10.606v47.343l-37.064 33.535c-3.143 2.844-4.937 6.884-4.937 11.123l-.003 76c0 3.978 1.58 7.794 4.393 10.607s6.628 4.394 10.607 4.394h95.79l70.38 70.38 26.395 67.745-25.881 49.977c-1.923 3.714-2.208 8.062-.788 11.996 1.421 3.933 4.42 7.095 8.273 8.721l90 37.996c1.883.795 3.865 1.182 5.831 1.182 3.886 0 7.709-1.511 10.576-4.36l80-79.496c2.834-2.816 4.427-6.646 4.427-10.64v-26.499l54.001-.001c7.552 0 13.926-5.615 14.879-13.106l6.526-51.279 53.831-75.94c1.797-2.535 2.763-5.566 2.763-8.674l.001-97c.001-7.267-5.204-13.487-12.353-14.768zm-166.148-100.24c41.355 0 75 33.645 75 75 0 18.632-12.012 48.502-31.348 77.953-20.067 30.565-37.939 45.376-43.652 46.976-5.713-1.6-23.585-16.411-43.652-46.976-19.336-29.451-31.348-59.32-31.348-77.953 0-41.355 33.645-75 75-75zm148.501 207.227-53.237 75.104c-1.424 2.009-2.332 4.338-2.643 6.781l-5.332 41.894-55.789.001c-8.284 0-15 6.716-15 15v35.257l-68.436 68.004-65.784-27.772 21.54-41.593c1.983-3.829 2.222-8.326.657-12.343l-30-77c-.754-1.935-1.901-3.693-3.37-5.161l-77-77c-2.813-2.813-6.628-4.394-10.606-4.394h-87.003l.002-54.343 37.065-33.535c3.143-2.844 4.937-6.885 4.937-11.123v-39h69c3.979 0 7.794-1.581 10.607-4.394s4.393-6.629 4.393-10.607l-.001-31 53.353-.003 25.96 17.804c-4.397 11.568-6.812 24.104-6.812 37.196 0 37.471 29.071 83.715 37.981 96.997 11.7 17.44 41.652 58.004 67.019 58.004s55.319-40.564 67.019-58.004c5.614-8.369 19.228-29.827 28.535-53.929l52.948 9.488z" data-original="#000000" class="active-path" data-old_color="#000000" fill="#ED254E"/><path d="m333.502 150.002c24.813 0 45-20.187 45-45s-20.187-45-45-45-45 20.187-45 45 20.187 45 45 45zm0-60.001c8.271 0 15 6.729 15 15s-6.729 15-15 15-15-6.729-15-15 6.729-15 15-15z" data-original="#000000" class="active-path" data-old_color="#000000" fill="#ED254E"/></g></g> </svg>
