<svg id="Capa_1" enable-background="new 0 0 528 528" height="512" viewBox="0 0 528 528" width="512" xmlns="http://www.w3.org/2000/svg"><path d="m412.5 0h-297c-27.296 0-49.5 22.204-49.5 49.5v429c0 27.296 22.204 49.5 49.5 49.5h297c27.296 0 49.5-22.204 49.5-49.5v-429c0-27.296-22.204-49.5-49.5-49.5zm-297 33h297c9.104 0 16.5 7.396 16.5 16.5v346.5h-330v-346.5c0-9.104 7.396-16.5 16.5-16.5zm297 462h-297c-9.104 0-16.5-7.396-16.5-16.5v-49.5h330v49.5c0 9.104-7.396 16.5-16.5 16.5z"/><path d="m275.667 450.333c6.444 6.444 6.444 16.891 0 23.335s-16.891 6.444-23.335 0-6.444-16.891 0-23.335 16.891-6.444 23.335 0"/></svg>