<?xml version="1.0"?>
<svg xmlns="http://www.w3.org/2000/svg" height="512px" viewBox="-137 0 512 512" width="512px"><g><path d="m238.292969 141.707031c-.015625-2.6875-.769531-5.378906-2.160157-7.675781l-33.054687-54.691406v-48.195313c0-17.171875-13.972656-31.144531-31.144531-31.144531h-105.570313c-17.171875 0-31.144531 13.972656-31.144531 31.144531v48.195313l-33.054688 54.691406c-1.402343 2.316406-2.164062 5.046875-2.164062 7.757812v228.421876c0 2.714843.761719 5.4375 2.164062 7.757812l33.054688 54.691406v48.195313c0 17.171875 13.972656 31.144531 31.144531 31.144531h105.570313c17.171875 0 31.144531-13.972656 31.144531-31.144531v-48.195313l33.058594-54.6875c1.398437-2.320312 2.160156-5.050781 2.160156-7.761718v-228.421876c0-.027343-.003906-.054687-.003906-.082031-.003907-.441406 0 .027344 0 0zm-58.675781 271.773438h-120.9375l-17.085938-28.269531h155.109375zm-120.9375-314.960938h120.9375l17.085937 28.269531h-155.109375zm149.617187 58.269531v84.210938h-37.074219c-5.988281 0-11.402344 3.5625-13.773437 9.058594l-12.261719 28.4375-38.300781-88.8125c-5.097657-11.8125-22.449219-11.820313-27.546875 0l-22.132813 51.316406h-27.207031v-84.210938zm-178.296875 198.421876v-84.210938h37.074219c5.988281 0 11.402343-3.5625 13.773437-9.058594l12.265625-28.4375 38.300781 88.8125c5.09375 11.8125 22.449219 11.820313 27.546876 0l22.128906-51.316406h27.207031v84.210938zm35.21875-324.066407c0-.628906.515625-1.144531 1.144531-1.144531h105.570313c.628906 0 1.144531.515625 1.144531 1.144531v37.375h-107.859375zm107.859375 449.710938c0 .628906-.515625 1.144531-1.144531 1.144531h-105.570313c-.628906 0-1.144531-.515625-1.144531-1.144531v-37.375h107.859375zm0 0" data-original="#000000" class="active-path" data-old_color="#000000" fill="#ED254E"/></g> </svg>
