<svg id="Capa_1" enable-background="new 0 0 527.999 527.999" height="512" viewBox="0 0 527.999 527.999" width="512" xmlns="http://www.w3.org/2000/svg"><path d="m407.994 128.511-28.994-116.007c-1.837-7.348-8.427-12.504-16-12.504h-198c-7.573 0-14.164 5.156-16 12.504l-28.994 116.007c-33.383 35.458-54.006 83.058-54.006 135.489s20.623 100.031 54.006 135.488l28.994 116.007c1.837 7.348 8.427 12.504 16 12.504h198c7.573 0 14.164-5.156 16-12.504l28.994-116.007c33.383-35.457 54.006-83.058 54.006-135.488 0-52.431-20.623-100.031-54.006-135.489zm-230.104-95.511h172.219l15.322 61.267c-29.711-17.824-64.332-28.267-101.431-28.267s-71.72 10.443-101.431 28.267c0 0 15.321-61.267 15.321-61.267zm172.219 462h-172.219l-15.322-61.267c29.711 17.823 64.332 28.267 101.431 28.267s71.72-10.443 101.431-28.267c.001 0-15.321 61.267-15.321 61.267zm-86.109-66c-90.976 0-165-74.024-165-165s74.024-165 165-165 165 74.024 165 165-74.025 165-165 165z"/></svg>